<?xml version="1.0" encoding="UTF-8" standalone="no"?>
<svg width="26px" height="35px" viewBox="0 0 26 35" version="1.1" xmlns="http://www.w3.org/2000/svg" xmlns:xlink="http://www.w3.org/1999/xlink">
    <!-- Generator: Sketch 49.1 (51147) - http://www.bohemiancoding.com/sketch -->
    <title>Group 2</title>
    <desc>Created with Sketch.</desc>
    <defs></defs>
    <g id="Page-1" stroke="none" stroke-width="1" fill="none" fill-rule="evenodd">
        <g id="On-Light" transform="translate(-147.000000, -442.000000)">
            <g id="Group-2" transform="translate(147.000000, 442.000000)">
                <g id="Group" transform="translate(9.000000, 9.000000)">
                    <g id="Group-10" fill="#48D3E3">
                        <g id="Group-9">
                            <polyline id="Path-Copy" transform="translate(4.500000, 4.500000) scale(1, -1) translate(-4.500000, -4.500000) " points="9 9 9 -3.55271368e-15 0 -3.55271368e-15"></polyline>
                        </g>
                    </g>
                    <polyline id="Path-Copy" fill="#0096B1" transform="translate(4.500000, 4.500000) scale(-1, 1) translate(-4.500000, -4.500000) " points="9 9 9 0 0 0"></polyline>
                </g>
                <g id="Group" transform="translate(9.000000, 17.000000)">
                    <g id="Group-10" fill="#48D3E3">
                        <g id="Group-9">
                            <polyline id="Path-Copy" transform="translate(4.500000, 4.500000) scale(1, -1) translate(-4.500000, -4.500000) " points="9 9 9 -3.55271368e-15 0 -3.55271368e-15"></polyline>
                        </g>
                    </g>
                    <polyline id="Path-Copy" fill="#0096B1" transform="translate(4.500000, 4.500000) scale(-1, 1) translate(-4.500000, -4.500000) " points="9 9 9 0 0 0"></polyline>
                </g>
                <g id="Group" transform="translate(9.000000, 26.000000)">
                    <g id="Group-10" fill="#48D3E3">
                        <g id="Group-9">
                            <polyline id="Path-Copy" transform="translate(4.500000, 4.500000) scale(1, -1) translate(-4.500000, -4.500000) " points="9 9 9 -3.55271368e-15 0 -3.55271368e-15"></polyline>
                        </g>
                    </g>
                    <polyline id="Path-Copy" fill="#0096B1" transform="translate(4.500000, 4.500000) scale(-1, 1) translate(-4.500000, -4.500000) " points="9 9 9 0 0 0"></polyline>
                </g>
                <g id="Group" transform="translate(9.000000, 0.000000)">
                    <g id="Group-10" fill="#48D3E3">
                        <g id="Group-9">
                            <polyline id="Path-Copy" transform="translate(4.500000, 4.500000) scale(1, -1) translate(-4.500000, -4.500000) " points="9 9 9 -3.55271368e-15 0 -3.55271368e-15"></polyline>
                        </g>
                    </g>
                    <polyline id="Path-Copy" fill="#0096B1" transform="translate(4.500000, 4.500000) scale(-1, 1) translate(-4.500000, -4.500000) " points="9 9 9 0 0 0"></polyline>
                </g>
                <g id="Group" transform="translate(17.000000, 0.000000)">
                    <g id="Group-10" fill="#48D3E3">
                        <g id="Group-9">
                            <polyline id="Path-Copy" transform="translate(4.500000, 4.500000) scale(1, -1) translate(-4.500000, -4.500000) " points="9 9 9 -3.55271368e-15 0 -3.55271368e-15"></polyline>
                        </g>
                    </g>
                    <polyline id="Path-Copy" fill="#0096B1" transform="translate(4.500000, 4.500000) scale(-1, 1) translate(-4.500000, -4.500000) " points="9 9 9 0 0 0"></polyline>
                </g>
                <g id="Group">
                    <g id="Group-10" fill="#48D3E3">
                        <g id="Group-9">
                            <polyline id="Path-Copy" transform="translate(4.500000, 4.500000) scale(1, -1) translate(-4.500000, -4.500000) " points="9 9 9 -3.55271368e-15 0 -3.55271368e-15"></polyline>
                        </g>
                    </g>
                    <polyline id="Path-Copy" fill="#0096B1" transform="translate(4.500000, 4.500000) scale(-1, 1) translate(-4.500000, -4.500000) " points="9 9 9 0 0 0"></polyline>
                </g>
            </g>
        </g>
    </g>
</svg>